/* XPM */
static char *_578248344835[] = {
/* columns rows colors chars-per-pixel */
"32 32 170 2 ",
"   c #343434",
".  c #393939",
"X  c #3A3A3A",
"o  c gray23",
"O  c gray24",
"+  c #3E3E3E",
"@  c #3F3F3F",
"#  c #0B4D42",
"$  c #135046",
"%  c #155248",
"&  c #1D544B",
"*  c #197767",
"=  c #1B7B6B",
"-  c #207768",
";  c #217768",
":  c #227A6B",
">  c gray26",
",  c #434343",
"<  c #444444",
"1  c gray27",
"2  c #745F5F",
"3  c #636B6A",
"4  c #656D6C",
"5  c #686868",
"6  c DimGray",
"7  c #6A6A6A",
"8  c gray42",
"9  c #6C6C6C",
"0  c gray43",
"q  c #6F6F6F",
"w  c #756161",
"e  c #74746E",
"r  c #6C6E76",
"t  c #6D6F76",
"y  c #6C6F7A",
"u  c #6C707B",
"i  c #6D717B",
"p  c gray44",
"a  c #717171",
"s  c gray45",
"d  c #737374",
"f  c #747474",
"g  c #747575",
"h  c gray46",
"j  c #767676",
"k  c #777777",
"l  c #787674",
"z  c #797674",
"x  c #797675",
"c  c #7A7775",
"v  c #7B7876",
"b  c #7C7876",
"n  c #757C7B",
"m  c #727D7E",
"M  c #737D7E",
"N  c #777E7D",
"B  c gray47",
"V  c #797979",
"C  c #7C7978",
"Z  c #7C7A78",
"A  c #7F7F79",
"S  c #7C7C7C",
"D  c gray49",
"F  c #7E7E7D",
"G  c #7E7E7E",
"H  c #7F7F7E",
"J  c gray50",
"K  c #970303",
"L  c #940C0C",
"P  c #950C0C",
"I  c #921515",
"U  c #EC0909",
"Y  c #F60000",
"T  c red",
"R  c #F30909",
"E  c #807575",
"W  c #877474",
"Q  c #897474",
"!  c #ECA92F",
"~  c #F8AF2B",
"^  c #EDAA30",
"/  c #EDAA31",
"(  c #EFAC33",
")  c #E5A838",
"_  c #80807A",
"`  c #A68A77",
"'  c #AA8B76",
"]  c #AB8C77",
"[  c #AF8E77",
"{  c #B5957E",
"}  c #B6967F",
"|  c #BA987F",
" . c #1C3A8F",
".. c #153592",
"X. c #1D3A90",
"o. c #243F8E",
"O. c #1540C7",
"+. c #1C45C0",
"@. c #1C46C4",
"#. c #1542CC",
"$. c #309483",
"%. c #329685",
"&. c #349988",
"*. c #7D8387",
"=. c #7E8588",
"-. c #75BFE5",
";. c #75C5EF",
":. c #61DAE1",
">. c #76C6F0",
",. c #77CEFB",
"<. c #5EE2EA",
"1. c #5FE3EB",
"2. c #5DECF5",
"3. c #808080",
"4. c #818181",
"5. c #868280",
"6. c #868382",
"7. c #868482",
"8. c #868686",
"9. c gray53",
"0. c #8D8783",
"q. c #898983",
"w. c #848688",
"e. c #848789",
"r. c #858D8C",
"t. c #868D8C",
"y. c #878F8E",
"u. c #888888",
"i. c #898989",
"p. c gray54",
"a. c #8B8A8A",
"s. c #8B8B8B",
"d. c gray55",
"f. c #8C8D8D",
"g. c #8D8D8D",
"h. c #8E8E8E",
"j. c gray56",
"k. c #969187",
"l. c #979187",
"z. c #92928B",
"x. c #8B9596",
"c. c #8B9697",
"v. c #B29580",
"b. c #B89881",
"n. c #BC9980",
"m. c #CDA88F",
"M. c #CEA88F",
"N. c #D0AA90",
"B. c #D5AD91",
"V. c #D8AF93",
"C. c #D8B8A3",
"Z. c #D9B9A5",
"A. c #DEBBA4",
"S. c #DEBCA6",
"D. c #E1BEA8",
"F. c #E2C0AA",
"G. c #F3EDA5",
"H. c #F6F0A7",
"J. c #F3F3AF",
"K. c #FEF8A9",
"L. c #F6F6B1",
"P. c #FFFFB5",
"I. c #BADBF2",
"U. c #C0DDF2",
"Y. c #C0E5FD",
"T. c #C7E7FE",
"R. c #FEF8E8",
"E. c #FEF8EE",
"W. c #FFFFF9",
"Q. c white",
/* pixels */
"J J f f f f f f s f J 4.j.j.j.s.5 7 z.j.*.S f f f f f f f f *.E ",
"J J s s f f f S j j *._ j.j.j.s.5 9 h.f.w.E f f f f f f f f J *.",
"J J J J j.j.j.j.j.j.j.j.j.j.j.d.f f h.h.z.j.j.a.5 6 _ 4.4._ f f ",
"J J S J d.s.s.j.c.c.d.d.d.d.d.s.k k f.j.h.d.d.i.2 2 E E J S f f ",
"J J 5 5 f f f m 2.1.s s f f f f h.d.f f E *.*.Q T Y K P J J J J ",
"J J 6 6 f f f m 1.:.s s f s t s 9.w.f f J J J Q R U P I J J J J ",
"J J j.j.J J J J J S 5 6 E S @ +   . 3.J f f f f f f s s s s J J ",
"J J j.j.J J J J J S 5 7 J S , > . + J D f j j j f f S f f f J S ",
"J J j.j.j.s.s f f f f f f f f f f f s j j.j.j.j.j.j.j.j.j.s.5 5 ",
"J J s.s.j.s.f f f f v S b c f f f f s f y.y.t.t.j.j.s.j.s.s.6 6 ",
"s s f f J J J J J 7.F.D.V.N.f f J J 5 3 &.&.= : s f f f 6 6 J J ",
"f S f f J J 7.7._ 0.S.A.B.m.c c J J 6 4 $.$.* ; f f k f 6 6 J S ",
"j.j.j.d.J 6.F.D.V.V.| n.n.| [ ] J J J N = * # % j.j.j.x.x.a.5 5 ",
"j.j.j.d.J 6.Z.C.N.M.b.b.{ { ' ` J S S n : ; $ & d.d.d.d.a.a.6 6 ",
"J J J J J J s s f f f f f f f f s s 5 5 f f f f f f g f E *.E 4.",
"J J w.w.=.*.s s k f f f f f f f J J e e j j j f c f k k 4.4.4.4.",
"J u.T.Y.,.;.5 0 j.d.f f J J J s.Q.W.P.J.j.j.j.j.j.j.j.j.j.j.j.j.",
"J u.U.I.;.-.5 6 d.s.f f J J q.z.E.R.K.H.l.l.j.d.d.d.d.j.j.j.d.d.",
"J J f f f f f f f f f f s A P.K.~ ~ ~ ~ ~ / f f f f f k j.d.3.J ",
"*.S f f f f f f l v f v f S J.G.! ! ^ ^ ( ) f k f f f k j.d.J J ",
"J E *.4.j.s.f l | b.x.j.j.s.f s 6 5 f k j.j.j.j.j.j.J 3.J J J J ",
"S S 4._ d.s.f c { { h.a.s.s.f f 7 9 f c d.j.9.9.8.8.3.3.J 3.D D ",
"5 5 *.E J J 4._ f f E 4.J J J J z.h.x.j.3.S + +   . j.j.j.s.5 5 ",
"5 7 J *.J J J S f f S *.J J J J u.u.9.9.k f + O   . 9.9.d.s.6 5 ",
"_ *.f f f f f f f f f f f f s 0 @ @ 1 , @ +           . f f 3.3.",
"4.E f d f d u y r r f f f f s s , , , , + + . . . O . + f k 3.3.",
"J _ z.f.f u #.O... .3.3.E J s f f 0       . f f 3.J J 3.j.j.j.j.",
"J *.j.f.f u @.+. .o.J 3.*.J s f f p . . O @ k f J J D J d.s.j.d.",
"J J J J 3.J s s f f f f f f f f 3.J J 3.j.j.j.d.J J f f f f 3.J ",
"J J J J J J s s s f f f k f f f 3.J J 3.j.d.s.s.D D f f f f J J ",
"s s f f f f d s 5 8 j.j.j.j.J J J J J J J D f f f f f f J J J J ",
"s s f f f f f s 5 8 j.j.j.d.J J J J J J J J f f f f f f J J J J "
};
