/* XPM */
static char *_578248353650[] = {
/* columns rows colors chars-per-pixel */
"32 32 16 1 ",
"  c black",
". c #78250E",
"X c #8B2A10",
"o c #912D11",
"O c #A03113",
"+ c #A73313",
"@ c #A83414",
"# c #B23715",
"$ c #B63815",
"% c #B73815",
"& c #C13C17",
"* c #C93D17",
"= c #DB441A",
"- c #AFAFAF",
"; c #CECECE",
": c gray86",
/* pixels */
"==**%%++==**%%++==**%%++==**%%++",
"==**%%++==**%%++==**%%++==**%%++",
"==&&@@oo==&&@@oo==&&@@oo==&&@@oo",
"==&&@@oo==&&@@oo==&&@@oo==&&@@oo",
"==&&@@oo==&&@@oo==&&@@oo==&&@@oo",
"==&&@@oo==&&@@oo==&&@@oo==&&@@oo",
"==&&@@oo==&&@@oo==&&@@oo==&&@@oo",
"==&&@@oo==&&@@oo==&&@@oo==&&@@oo",
"==&&@@oo==&&@@oo==&&@@oo==&&@@oo",
"==&&@@oo==&&@@oo==&&@@oo==&&@@oo",
"::::::;;::::::::;;::::;;;;::::;;",
"::::::;;::::::::;;::::;;;;::::;;",
";;::      ;;  ;;::  ;;      ::;;",
";;::      ;;  ;;::  ;;      ::;;",
";;;;;;  ;;;;    ;;  ;;;;  ;;;;;;",
";;;;;;  ;;;;    ;;  ;;;;  ;;;;;;",
";;;;;;  ;;;;  ;;    ;;;;  ;;;;;;",
";;;;;;  ;;;;  ;;    ;;;;  ;;;;;;",
";;----  ;;--  ;;;;  ;;;;  ----;;",
";;----  ;;--  ;;;;  ;;;;  ----;;",
"----;;----;;------;;----;;------",
"----;;----;;------;;----;;------",
"%%OOXX..%%OOXX..%%OOXX..%%OOXX..",
"%%OOXX..%%OOXX..%%OOXX..%%OOXX..",
"==%&##oo==&&##oo==&&##oo==&&%#oo",
"==$=##oo==&&##oo==&&##oo==&&##oo",
"==%%##oo==&&##oo==&&##oo==%&##oo",
"===%##oo==&&##oo==&&##oo==&&##oo",
"==&&##oo==&&##oo==&&##oo==&&##oo",
"==&&##oo==&&##oo==&&##oo==&&##oo",
"&&##OOoo&&##OOoo&&##OOoo&&##OOoo",
"&&##OOoo&&##OOoo&&##OOoo&&##OOoo"
};
