/* XPM */
static char *_578248357975[] = {
/* columns rows colors chars-per-pixel */
"32 32 63 1 ",
"  c #4C3D26",
". c #4D3D26",
"X c #4E3E27",
"o c #675332",
"O c #685332",
"+ c #695433",
"@ c #6A5433",
"# c #6A5533",
"$ c #6B5533",
"% c #6B5634",
"& c #6C5634",
"* c #725D38",
"= c #735D39",
"- c #735E39",
"; c #745E39",
": c #745F39",
"> c #755F39",
", c #755F3A",
"< c #75603A",
"1 c #76603A",
"2 c #76603B",
"3 c #77613B",
"4 c #77623B",
"5 c #78613B",
"6 c #78623B",
"7 c #7B613D",
"8 c #78623C",
"9 c #7C623E",
"0 c #9B804B",
"q c #9C814B",
"w c #9C824B",
"e c #9C824C",
"r c #9D824C",
"t c #9E824C",
"y c #9E834C",
"u c #9E834D",
"i c #9F844D",
"p c #A0844D",
"a c #A0844E",
"s c #A0854E",
"d c #A1854E",
"f c #AE8B57",
"g c #AF8C57",
"h c #B08D57",
"j c #B08D58",
"k c #B18D58",
"l c #B18E58",
"z c #B28E58",
"x c #B28F59",
"c c #B38F59",
"v c #B4905A",
"b c #B6945E",
"n c #B7945F",
"m c #B8945F",
"M c #B8955F",
"N c #B89560",
"B c #B99560",
"V c #B99660",
"C c #BA9660",
"Z c #BA9760",
"A c #BA9761",
"S c #BB9761",
"D c #BC9862",
/* pixels */
"DApiiiiippSDDSvcppADDDDDDDDDDApp",
"DAppiirrpsSSAAclipAAAASSAASSSAii",
"DASSll-<vlvciiiipparppvlpacvAAii",
"DDDScl<<lvllpppirrspsslvsscvSAii",
"DDDMpiriiiipccll-2AAASvvSSAADArr",
"MMMMrqrqrrrrjllg-<NAmmggNAvNANrr",
"++++++:-----,-------O@@@@@%%--::",
"&&+++%::<-,,,,::<<-:&O@@%%%&,:2,",
"DSpiiiiiipSDDAppDAaaar::lcvvvvSD",
"DMiirriiisSSSAipSMaaar:7cccvccAA",
"iiiw-2cclvvvSAiivvccccclsaarprpi",
"sppr27ccvvvvAAipvllljlccaaaasasp",
"ASAAASccDAAAAArpppir-:AASAAASAAS",
"NANANNjgvANNNNrrqrrw--NNmmNNANNA",
"----O@@@%@@+@@-:-:--@+@@O@@%-:--",
":,2:&&%&&&@@@%:::::-%%%&&&&&,::-",
"DDDDDDSSDb-<ipSDDScvcvvcDDDDDSii",
"AAAAAASASb<7ipSSAAccccllDSSMSMii",
"iiiippaaipSSvlvliippar::DSaaiiii",
"spppppaappADlvvliiiiar:7SSaapiii",
"AAlclcccDDDAiiiiiipplvccvvlvvvii",
"ANjlllllAvAb00rrrrrrlljjlgllggrq",
"-:@@----@@O@%@---------=%o++++--",
",:&&2,::%&O%&&::::--::::%%&&&%<<",
"DDDDDDDDDApsSAiipr:<riiilvADDDDD",
"SAADANADDSppSAiipr:2piiicvAAAASS",
"ccar-:SDSSSSSAppDAlvvlpiprpappcc",
"ccar:7AAAASSDAppDSvvvlpppsssssvv",
"AAAArrppiiAADDarDAAArilcSAAASASS",
"NNANrrrr00ANAvrrANNNr0llNAvNNANN",
"------97+++%97@@-----=@O X@+@@:=",
"------77+++%77@O-----=@O  o@@O=-"
};
