/* XPM */
static char *_542_1b70350983d78e02a8b73672efc498bec9ecd11ca949de653e5a2bda044648e3[] = {
/* columns rows colors chars-per-pixel */
"32 32 24 1 ",
"  c black",
". c #0B0505",
"X c #0B0605",
"o c #130B0A",
"O c #150D0B",
"+ c #160D0B",
"@ c #170D0C",
"# c #1A100E",
"$ c #1E120F",
"% c #211310",
"& c #211311",
"* c #221311",
"= c #271613",
"- c #261713",
"; c #291815",
": c #2D1B17",
"> c #351F1B",
", c #37201C",
"< c #37211D",
"1 c #38211D",
"2 c #3D2520",
"3 c #432823",
"4 c #4B2C26",
"5 c #613931",
/* pixels */
"55..::::##..33XX  55::  XX$$>>33",
"55..::::##..33XX  55::  XX$$>>33",
"33  ..::33  33553333>>++++44OO  ",
"33  ..::33  33553333>>++++44OO  ",
"3333::++553333..3333>>++..33..55",
"3333::++553333..3333>>++..33..55",
"....::++;;....    33::::..553333",
"....::++;;....    33::::..553333",
"..  ..--++    3333::oo....3333..",
"..  ..--++    3333::oo....3333..",
"  55::==++3333++..==..@@++..33  ",
"  55::==++3333++..==..@@++..33  ",
"33::++==553333==33++..  5533++33",
"33::++==553333==33++..  5533++33",
"::++++..<<====....======..==++::",
"::++++..<<====....======..==++::",
"++5533,,....33==55::::==  ..++++",
"++5533,,....33==55::::==  ..++++",
"++..33..==++5533....55::==++==33",
"++..33..==++5533....55::==++==33",
"..  55..  ::++33    33..::..**==",
"..  55..  ::++33    33..::..**==",
"33====33==++==33335533    %%..++",
"33====33==++==33335533    %%..++",
"33....====++33......333355::..33",
"33....====++33......333355::..33",
"==      ++::==33..    33::++==++",
"==      ++::==33..    33::++==++",
"++++==22++33++++55333333::==  ..",
"++++==22++33++++55333333::==  ..",
"==55++++115555&&..::..::==....==",
"==55++++115555&&..::..::==....=="
};
