/* XPM */
static char *_578248665683[] = {
/* columns rows colors chars-per-pixel */
"32 32 50 1 ",
"  c #2D5A07",
". c #325F0C",
"X c #35620D",
"o c #39670E",
"O c #37680E",
"+ c #366312",
"@ c #3A6614",
"# c #3C6A15",
"$ c #3B6718",
"% c #3E6B19",
"& c #3E7017",
"* c #3F7118",
"= c #3F6B20",
"- c #406E17",
"; c #416E1B",
": c #427216",
"> c #44721C",
", c #49771F",
"< c #46791C",
"1 c #4A7A1F",
"2 c #436D21",
"3 c #467321",
"4 c #497623",
"5 c #477922",
"6 c #4C7A24",
"7 c #4B7629",
"8 c #4E7B29",
"9 c #507E26",
"0 c #517D2B",
"q c #537F30",
"w c #4F8126",
"e c #538226",
"r c #54822C",
"t c #58862D",
"y c #56882D",
"u c #5A8A2E",
"i c #568331",
"p c #598632",
"a c #5C8A34",
"s c #5B8738",
"d c #5E8B39",
"f c #5F9135",
"g c #618E35",
"h c #618D3B",
"j c #629036",
"k c #64923C",
"l c #68953D",
"z c #699C3F",
"x c #679344",
"c c #699442",
/* pixels */
"te11tt946478i0=+4;prtu1wef&Olfo>",
"ee,:et990434ii3+44prey::wf:Oye>0",
"9e1egt;.460ri87766agafw1zyOO6t00",
":66tkt;X;40pq88q44rree1<zw:&>9q0",
",>--rtrt>oX;pd0%ggqa091<uul9oo7q",
"11--9rrh;@+;0r7;hq0099uetujq>-70",
"9r049990->6,;;4p+;.$,:ttjt99gq4@",
"pg0;;,0h,44;@@4r+;+;,,uuue90hq4%",
";;>3>40appppt09>hxi8xf*5ju*=kk07",
"@;;;>5thrtaa094>qhi8ka**ey55sp77",
"804;##;>pr9>--9rss5%yawf<ewwqq77",
"07>;%;;>pr1-X-9pq8$$8yyd<5wr0747",
"hi7335>%999ttee972;2rw*O--,,;$;=",
"xdr743%+>4epggt94;;478*&>;,4--;$",
"24774448;19ttuup4;7735ry,,qp2%72",
"28iq3>3eX>tllgut$4qq3*8r53qh222;",
"+@,0gju9uu19lg647@70.;hs0s;#dd4i",
"$;8t9tuuuuetgp967606@;pha6@@0pi0",
";;qq:,uuueagetpr44-@00;-;-0i4404",
"77q9--tueeug99aa74-;q0-@@;0p4;33",
"gqh0,,tt::eu69aagqgq-;qhpr+.68;4",
"qq7790tto-1e9rtugqgq$;qgpd%Xr0#7",
"34;;gq9eX-:1te9e76-;79-@7pi8r4;5",
"@4@-hj,tX::1at696qo 87.;d80048r4",
"407;%%4a768rt9:o&7%>%%rpp5>$X%0r",
"4444338i40ppr,oX#333>%8p733%+@8r",
"hiq4$=ii0ri0,,8t64@3r0p39rpr%%7r",
"a0si+$qqssp0,,eap0+>ipi>36pi>%47",
"+$sh2%72$27ipttu6r43$#7r%3rariaa",
"@%sd3%2=$;30gjjjrr>;#@0p43raadhp",
"dpi82==2xhsr9661hi@%,8ap3>783,4%",
"fd8787==sssp091,ai%#>7dh878r3373"
};
