/* XPM */
static char *f860232d83bd4696c66bea3ade7f0dd4[] = {
/* columns rows colors chars-per-pixel */
"8 8 47 1 ",
"  c #080303",
". c #0C0606",
"X c #0F0807",
"o c #100808",
"O c #120A08",
"+ c #140B0A",
"@ c #160C0A",
"# c #160C0B",
"$ c #170D0B",
"% c #1A0E0D",
"& c #1A0F0D",
"* c #1B0F0D",
"= c #1B0F0E",
"- c #1B100E",
"; c #1D100E",
": c #1E110F",
"> c #201210",
", c #211310",
"< c #211411",
"1 c #221411",
"2 c #231512",
"3 c #241512",
"4 c #251613",
"5 c #261613",
"6 c #271613",
"7 c #271614",
"8 c #271714",
"9 c #281714",
"0 c #291714",
"q c #291815",
"w c #2B1916",
"e c #2D1A16",
"r c #2C1A17",
"t c #2E1A17",
"y c #2F1C18",
"u c #301C19",
"i c #321D19",
"p c #321E1A",
"a c #341F1A",
"s c #351F1B",
"d c #361F1B",
"f c #37201C",
"g c #38211C",
"h c #39221D",
"j c #3C231F",
"k c #402621",
"l c #432722",
/* pixels */
"w3*jh;<<",
"7<d+pwtj",
"*,-ww.;3",
"r$k3,$f7",
"3p+l9hO3",
"*d*uw<+*",
";.>r pd<",
"r3jwhr>O"
};
