/* XPM */
static char *e0277509815b42438fea3243c784cbbc[] = {
/* columns rows colors chars-per-pixel */
"8 8 14 1 ",
"  c #477421",
". c #487522",
"X c #497623",
"o c #4A7724",
"O c #4B7825",
"+ c #4C7926",
"@ c #4D7A27",
"# c #4E7B28",
"$ c #4F7C29",
"% c #507D2A",
"& c #517E2B",
"* c #527F2C",
"= c #53802D",
"- c #54812E",
/* pixels */
"-#.O&*$o",
"+o.O&**$",
"..+#&&&&",
"O#=&+Ooo",
"+*-&#. .",
"++&&+ooO",
"oO+#+++$",
"++OO++++"
};
