/* XPM */
static char *_578248363842[] = {
/* columns rows colors chars-per-pixel */
"32 32 244 2 ",
"   c #008219",
".  c #008F1C",
"X  c #008E1F",
"o  c #009D1F",
"O  c #009E1F",
"+  c #009A21",
"@  c #009B21",
"#  c #009C22",
"$  c #009D23",
"%  c #009F22",
"&  c #00A121",
"*  c #00A023",
"=  c #00A123",
"-  c #00A222",
";  c #00A224",
":  c #00A425",
">  c #00A426",
",  c #00A923",
"<  c #00AC22",
"1  c #00AD22",
"2  c #00A824",
"3  c #00A924",
"4  c #00AA24",
"5  c #00AC26",
"6  c #00AD26",
"7  c #00AF26",
"8  c #00AE27",
"9  c #07A72D",
"0  c #08A72D",
"q  c #00B125",
"w  c #00B027",
"e  c #00B127",
"r  c #00B226",
"t  c #00BA27",
"y  c #00B228",
"u  c #00B328",
"i  c #00B329",
"p  c #00B429",
"a  c #00B52A",
"s  c #00B828",
"d  c #00BA28",
"f  c #00BB28",
"g  c #00BC29",
"h  c #00BD2A",
"j  c #00BE2A",
"k  c #00BF2A",
"l  c #00BE2B",
"z  c #00BF2B",
"x  c #13AA37",
"c  c #15A938",
"v  c #17AB3A",
"b  c #00C02A",
"n  c #00C12A",
"m  c #00C12B",
"M  c #00C22B",
"N  c #00C32B",
"B  c #00C32C",
"V  c #00C42C",
"C  c #00C42D",
"Z  c #00C52D",
"A  c #00C62D",
"S  c #00C62E",
"D  c #00C72E",
"F  c #00C82E",
"G  c #03C832",
"H  c #04C833",
"J  c #04C933",
"K  c #05C933",
"L  c #09CA37",
"P  c #0ACA37",
"I  c #0DC839",
"U  c #0ECA3A",
"Y  c #0FCB3B",
"T  c #16CD41",
"R  c #18CD43",
"E  c #18CE43",
"W  c #1ACD44",
"Q  c #19CE44",
"!  c #1BCE46",
"~  c #1FCD47",
"^  c #1CCE46",
"/  c #1DCF47",
"(  c #20CD48",
")  c #22D04A",
"_  c #23D04B",
"`  c #2BD152",
"'  c #2CD152",
"]  c #2DD253",
"[  c #2FD255",
"{  c #30D255",
"}  c #33D358",
"|  c #34D358",
" . c #36D25B",
".. c #37D35C",
"X. c #39D45E",
"o. c #3BD55F",
"O. c #3BD560",
"+. c #3CD561",
"@. c #3DD561",
"#. c #44D665",
"$. c #45D666",
"%. c #47D768",
"&. c #4BD36A",
"*. c #48D769",
"=. c #4CD96D",
"-. c #4DD96E",
";. c #52D570",
":. c #5AD777",
">. c #5BD777",
",. c #52D970",
"<. c #50DA70",
"1. c #51DA70",
"2. c #53DA72",
"3. c #54DA73",
"4. c #56DA73",
"5. c #55DB74",
"6. c #57DA75",
"7. c #56DB75",
"8. c #5ADC77",
"9. c #5ADA78",
"0. c #5ADB79",
"q. c #5BDB79",
"w. c #5CDC7A",
"e. c #5DDC7A",
"r. c #5EDC7B",
"t. c #5FDD7C",
"y. c #60DD7D",
"u. c #63DD80",
"i. c #63DE80",
"p. c #65DD81",
"a. c #64DE80",
"s. c #67DC82",
"d. c #67DC83",
"f. c #67DE82",
"g. c #66DE83",
"h. c #67DE83",
"j. c #68DC83",
"k. c #68DE83",
"l. c #6BDA84",
"z. c #6CDA85",
"x. c #68DE84",
"c. c #69DF84",
"v. c #69DE85",
"b. c #6ADF84",
"n. c #6ADE85",
"m. c #6ADF85",
"M. c #6BDF86",
"N. c #6CDD86",
"B. c #6CDE86",
"V. c #6CDF86",
"C. c #6CDF87",
"Z. c #6DDF87",
"A. c #6DDF88",
"S. c #70DD88",
"D. c #70DE88",
"F. c #6EE088",
"G. c #6EE089",
"H. c #6FE089",
"J. c #70E08A",
"K. c #71E08A",
"L. c #71E08B",
"P. c #72E08C",
"I. c #72E18C",
"U. c #73E18D",
"Y. c #74E08E",
"T. c #74E18F",
"R. c #75E18F",
"E. c #76E190",
"W. c #77E190",
"Q. c #77E291",
"!. c #78E291",
"~. c #78E292",
"^. c #79E292",
"/. c #7AE292",
"(. c #7BE293",
"). c #7BE294",
"_. c #7CE294",
"`. c #7DE395",
"'. c #7EE395",
"]. c #7EE396",
"[. c #7FE396",
"{. c #80E397",
"}. c #80E497",
"|. c #80E398",
" X c #81E398",
".X c #81E498",
"XX c #82E499",
"oX c #83E49A",
"OX c #84E499",
"+X c #84E49A",
"@X c #85E49A",
"#X c #85E59A",
"$X c #84E49B",
"%X c #85E49B",
"&X c #85E59B",
"*X c #86E49B",
"=X c #86E59C",
"-X c #87E59C",
";X c #87E59D",
":X c #88E59D",
">X c #89E59E",
",X c #89E69E",
"<X c #89E69F",
"1X c #8AE69F",
"2X c #8BE6A0",
"3X c #8DE6A1",
"4X c #8CE7A1",
"5X c #8DE7A1",
"6X c #8EE6A1",
"7X c #8EE7A1",
"8X c #8EE7A2",
"9X c #8FE7A2",
"0X c #8FE7A3",
"qX c #90E7A3",
"wX c #91E8A4",
"eX c #92E8A5",
"rX c #93E8A7",
"tX c #94E8A7",
"yX c #95E8A8",
"uX c #96E9A9",
"iX c #97E9A9",
"pX c #97E8AA",
"aX c #97E9AA",
"sX c #98E9A9",
"dX c #98E9AA",
"fX c #99E9AA",
"gX c #99E9AB",
"hX c #9AE9AB",
"jX c #9BEAAC",
"kX c #9BEAAD",
"lX c #9CE9AD",
"zX c #9DEAAF",
"xX c #9EEAAF",
"cX c #9FEAB0",
"vX c #9FEAB1",
"bX c #A0EBB1",
"nX c #A3EBB4",
"mX c #A3EBB5",
"MX c #A4EBB5",
"NX c #A5ECB6",
"BX c #A8ECB7",
"VX c #A8ECB8",
"CX c #A9ECB8",
"ZX c #AAEDB9",
/* pixels */
"  . . . . . . . . . + + % * $ $ % + % + * ; ; > 0 0 x x v v + X ",
"O 1 1 1 1 1 1 1 1 1 t h N N h h d l h d N N F A P P R R ! Q h 5 ",
"3 d &.;.;.;.:.:.l.z.D.K.V.V.z.V.j.d.j.d.V.V.V.V.c.c.x.x.i.0.h 5 ",
"5 h 0.i.i.i.A.H.{.XX&X=XXXXXXXXX`.`.`.`.{.XX%X{.`.).Q.Q.U.c.l w ",
"w N /.&X&X&X=X=X8X8X>X>X2X2X2X2X%X%X&X%X>X1X%X%XQ.W.c.c.w.4.h w ",
"w N }.4X4X4X4X4X8XwX8X8X2X2X2X4X>X&X-X-X1X1X&X%XQ.W.c.x.8.,.l w ",
"p V XXqXqXqX4X4X4X4X8X8XiXhXwXyX4XqX-X-X&X&X{.&X`.).).Q./.A.l w ",
"u A &XwXeXeX4X4X8X2XeXeXhXjXiXhXqXeX-X-X%X{.XX{.`.`.`.`.`.D.l w ",
"u N >XyX4X4XqXqX>X-XtXtXwXwXwXwXwXwXqXqX%X{.`.`.Q.Q.U.U.U.c.B w ",
"u A >XiX4X4XqXwX&X-XtXhXwXwXwXwXwXwXwXqXXX{.`._.Q.W.U.D.U.x.B u ",
"u B 4XhXwXqXK.F.A.V.XX&X%XXX>X>X-X>X>X-X%X%X&X%X$XXX`.).].D.B u ",
"u N 4XlXwXwXV.b.c.c.{.XXXXXX%X=X-X-X-X-X-X-X&X>X*X*X`.`.].D.B u ",
"u A &XqX>X-X{.{.{.{.U.U.{.XXXXXX&X-X-X-XXXXX=X=X=X*X).).A.p.B w ",
"u N &XqX-X-XXXXXXXXXU.U.XXXXXXXX%X-X-X-XXXXX>X=X=X=X`.).A.x.l w ",
"u A 4XhX1X1X&XXXV.c.c.c.b.c.c.c.c.c.D.K.U.U.`.`.XXXXU.U.t.6.l w ",
"u B qXhXqX1XXXXXc.c.c.c.b.b.c.c.c.b.F.F.D.U.`.`.XX].U.D.t.6.l w ",
"u A =XiXvXvXXXXXjXvXA.c.c.c.c.c.c.c.c.c.F.F.y.y.F.y.5.5.@...h , ",
"u A 2XiXlXvX*XXXlXbXV.c.c.c.c.c.c.c.c.c.y.F.F.F.F.F.5.2.O. .h , ",
"u A >XiXNXNX*XXXyXiXyXwX4XqXtXtXrXeXtXtXhXhXhXhX8XeX,X,XXXD.N 5 ",
"u A >XiXnXNXXXXXrXiXiXiXwXwXtXiXiXiXiXiXhXjXhXhXtXtX8X,X%XR.N w ",
"u A pXNXCXCXCXVXNXnXvXvXNXnXNXnXvXvXvXlXlXkXcXcXhXsX-X&Xy.w.s 2 ",
"u S yXVXCXZXZXZXNXNXbXbXNXNXNXNXbXvXbXbXjXkXbXlXhXhX-X&Xp.0.s 2 ",
"u S jXCXCXZXZXZXCXCXCXCXZXBXNXNXbXbXjXjXjXhX&X&Xy.r.@.o.( ( w * ",
"a S jXZXZXZXZXZXZXZXZXZXZXZXNXNXbXbXjXjXjXhX>X&Xr.r.o.X.) ( q 2 ",
"a S lXZXbXbXbXbXNXNXCXZXZXZXbXbXiXiX4X4XQ.R.1.-.E E G K F A w 2 ",
"a S jXZXbXbXbXbXNXNXCXZXZXZXbXbXrXiX4X8XQ.R.1.-.E T G G F F w * ",
"a A iXNXiXiXeXeXlXbXbXbXbXbXlXhX4X4XQ.Q.*.$.' ' ^ ^ U U U I q & ",
"a G pXNXiXiX0XeXvXbXbXvXbXbXhXlX4X4XQ.Q.%.$.' ' ^ ^ Y Y Y I q & ",
"p A 2XiX4X4X].`.{.XX*X>XXXXX`.`.Q.Q.H.H.| { U U A A N N N h 1 O ",
"p A =XiX4X4X`.`.XXXX*X*XXXXX`.`.Q.Q.G.H. .{ Y U B V h N N g , O ",
"u B N h B h B B B N l B A F N h N N G J A A A A A B N h N h t , ",
"u h B h N N B l h N B B A A B h N B G J A A A A A B N N h g g , "
};
