/* XPM */
static char *_578244984393[] = {
/* columns rows colors chars-per-pixel */
"32 32 36 1 ",
"  c #6F5C44",
". c #746047",
"X c #76644C",
"o c #7A664C",
"O c #7C684E",
"+ c #7E6B52",
"@ c #806B4F",
"# c #816E55",
"$ c #826F58",
"% c #857156",
"& c #887257",
"* c #85725A",
"= c #8A755B",
"- c #8D785E",
"; c #877661",
": c #8A7760",
"> c #8C7A62",
", c #917D64",
"< c #907E68",
"1 c #978064",
"2 c #998165",
"3 c #97836A",
"4 c #9B856B",
"5 c #9D886E",
"6 c #9E8A71",
"7 c #A38867",
"8 c #A58C6C",
"9 c #A88F6F",
"0 c #A48E72",
"q c #A88F70",
"w c #A79074",
"e c #AA9273",
"r c #AC9679",
"t c #AF987B",
"y c #B09A7D",
"u c #B39C81",
/* pixels */
"yyyteetteyttyyytyyertttyteetyyuu",
"qee9eqeeeqee9ee99e,0teee99878998",
"q9eeeeeeeeq9eeette458q9888999889",
"8778888878eeeeeett5099e9889e9999",
"9eee9ereeee9ereeee40w8888789qq98",
"9eeeeee9888eqqqeee50ee8877889999",
"88qq89eeq888888888,qre8888898999",
"-&&---,---===&&&##o--======-=&&&",
"trrrerrw4wrwre0qwwrrrrrreeqqwwer",
"qqqq9eq5>wrre98888qe88eeeq9eeqqq",
"qeeette6>7q8988888898e8eeqeeeqeq",
"eeeeeetq<qqe9888e88q887788888888",
"we9e88e0<0qq7887qee98w99e9ereeee",
"8ereeee83weq88788889q8ereeewe889",
"8888888,>rw08888888q087q988qwq88",
"++OO+OX X+++++++++O++++++%$$%$$$",
"55544456666555444444545554563:36",
"ee888788888ewe99weqw9ee8qqwq1:we",
"998888988e999eeeeeeee9eeeree4:7q",
"99979e99e877888888879eeeertt5>5w",
"98878999898eee9eeeere9eeeeee3;5q",
"88777898e999eeree99889999eee4>7e",
"988889889888wq88ewe888w88888,>re",
"-===*==%%%%%%&:;=-=*%%%####O +;*",
"w4355666448500w0500856758000060w",
"94:rwww988778q88eew9eweeqqeeqqqq",
"e5>899988899q88e8e9eeee889qeeete",
"tw18ee9888e98e887887888eeqeeeeet",
"r6>w99888489e88q8ee8weeeee88eeee",
"e03we98788888qe8eeeereeeeteqe9ee",
"81:w9884708788888qe8700q88788788",
"O.X=+##%+%+$+++++++&**&&$$###++#"
};
