/* XPM */
static char *_5e315c6ae884f68fae785ebd1521ea7[] = {
/* columns rows colors chars-per-pixel */
"32 32 91 1 ",
"  c black",
". c #060509",
"X c #0B0912",
"o c #110E1B",
"O c #1B131E",
"+ c #181425",
"@ c #111821",
"# c #181E2B",
"$ c #211928",
"% c #2B1E2B",
"& c #2F1E2A",
"* c #142022",
"= c #1A2C23",
"- c #1B262C",
"; c #1B3032",
": c #183237",
"> c #1F3833",
", c #35232E",
"< c #38232D",
"1 c #21312D",
"2 c #3F2832",
"3 c #46292F",
"4 c #422830",
"5 c #4C2D33",
"6 c #4F2E32",
"7 c #463D3B",
"8 c #573534",
"9 c #593335",
"0 c #743F39",
"q c #1F4239",
"w c #254335",
"e c #2B4E36",
"r c #22453A",
"t c #224A3A",
"y c #254D3B",
"u c #32423A",
"i c #28553C",
"p c #2B583C",
"a c #2E603D",
"s c #346B3F",
"d c #53583F",
"f c #343548",
"g c #3B3C49",
"h c #1F4C40",
"j c #224F40",
"k c #225441",
"l c #255741",
"z c #285F42",
"x c #3E5351",
"c c #2B6243",
"v c #2C6743",
"b c #2E6A44",
"n c #386541",
"m c #327245",
"M c #347545",
"N c #387D46",
"B c #4B4951",
"V c #715241",
"C c #775D42",
"Z c #4D6446",
"A c #456B42",
"S c #596440",
"D c #4B7644",
"F c #426F5F",
"G c #51755D",
"H c #646444",
"J c #556A69",
"K c #487A60",
"L c #5E6376",
"P c #597C70",
"I c #825E46",
"U c #965744",
"Y c #886948",
"T c #A7634A",
"R c #B86F50",
"E c #3E8948",
"W c #4B8261",
"Q c #518D63",
"! c #588E6B",
"~ c #719E88",
"^ c #7C9095",
"/ c #7F9896",
"( c #81AB90",
") c #8891A4",
"_ c #9296A7",
"` c #94AFAB",
"' c #A5AAB7",
"] c #A8ABB5",
"[ c #A2BBB5",
"{ c #B5C0D0",
"} c #E2E6EC",
/* pixels */
"                                ",
"                                ",
"                                ",
"                                ",
"                                ",
"                                ",
"             Xwee*.             ",
"           .wNEEEEa*            ",
"          .aEEEEEEEE*           ",
"       1eXXEEEEEEEEEe.=eX       ",
"       .iNwENmEEENmEasv=        ",
"        .tNmPrlmblJbmv*         ",
"         =NE/'hbz^'bNs.         ",
"          omzhbEEhhN>.          ",
"           *NQzmzWEi.O$$.       ",
"      f.   .q!`hF[zXo552,.      ",
"      L].  yENK((bEi<6944o      ",
"      g{B =ENEMccEEN90999+      ",
"      .)}BN@rMEEEEl*90999+      ",
"       g{~w ebNEEbNX50999+      ",
"       -_GX.pNENEEN@%59,4o      ",
"       @enXXYzEbENZ8X4,,%.      ",
"        O+.iCTdSSVTA*O$$.       ",
"          *EEHURTIDEa.          ",
"         .sEN;700:iEEX          ",
"         .yE@ 3URXXNy.          ",
"        XX@h> %38XXk@           ",
"        wzmj@     XjNw-         ",
"        .XXX       @;;*         ",
"                                ",
"                                ",
"                                "
};
