/* XPM */
static char *ecfb29104fcc4629a0ee65dd0f82fd29[] = {
/* columns rows colors chars-per-pixel */
"32 32 244 2 ",
"   c #191618",
".  c #1A1718",
"X  c #1A1719",
"o  c #161D1E",
"O  c #3E2C1B",
"+  c #1E3333",
"@  c #383439",
"#  c #59493C",
"$  c #6B4B27",
"%  c #775E37",
"&  c #264A49",
"*  c #425548",
"=  c #544F51",
"-  c #5D5A62",
";  c gray50",
":  c #A0652B",
">  c #A6692B",
",  c #E85E03",
"<  c #E85E04",
"1  c #E96105",
"2  c #EB670A",
"3  c #E8650D",
"4  c #E9670F",
"5  c #EB680D",
"6  c #ED6C0E",
"7  c #EE6C0F",
"8  c #EE6E10",
"9  c #E96A14",
"0  c #EA711D",
"q  c #F07213",
"w  c #F27717",
"e  c #F37919",
"r  c #F47B1B",
"t  c #CC7726",
"y  c #CE7826",
"u  c #CF7927",
"i  c #C2772C",
"p  c #C5792D",
"a  c #D07927",
"s  c #D27A27",
"d  c #D37B27",
"f  c #D77E29",
"g  c #DA7F29",
"h  c #E57932",
"j  c #EB7E31",
"k  c #ED7E35",
"l  c #749B7F",
"z  c #D5802E",
"x  c #D8832F",
"c  c #D38636",
"v  c #E1842B",
"b  c #E2842B",
"n  c #E4852B",
"m  c #F98724",
"M  c #F98825",
"N  c #FA8A27",
"B  c #FC8F2B",
"V  c #FC8F2C",
"C  c #F8912E",
"Z  c #F9912F",
"A  c #FC932E",
"S  c #FC932F",
"D  c #FE932E",
"F  c #FD942F",
"G  c #FE942F",
"H  c #EC813A",
"J  c #EC813B",
"K  c #EC863C",
"L  c #F28433",
"P  c #F38533",
"I  c #F38633",
"U  c #F58932",
"Y  c #F68A32",
"T  c #F08E30",
"R  c #F98E31",
"E  c #F88F31",
"W  c #F88E34",
"Q  c #F59134",
"!  c #FE9430",
"~  c #FE9530",
"^  c #FF9530",
"/  c #FE9531",
"(  c #FA9135",
")  c #FE9735",
"_  c #FE9836",
"`  c #FE9837",
"'  c #F19238",
"]  c #F5983C",
"[  c #FE9938",
"{  c #FE9D3E",
"}  c #FE9C3F",
"|  c #84855D",
" . c #B18256",
".. c #B6875F",
"X. c #AA9056",
"o. c #919A6F",
"O. c #94996D",
"+. c #978B7F",
"@. c #9E8B79",
"#. c #9E8C7B",
"$. c #B78869",
"%. c #A38D7E",
"&. c #AB927F",
"*. c #AE967E",
"=. c #B69A7F",
"-. c #BE9B78",
";. c #BE9C7C",
":. c #CE974B",
">. c #C38155",
",. c #CE955F",
"<. c #DE9754",
"1. c #DE9854",
"2. c #EC8541",
"3. c #E78F4A",
"4. c #E19640",
"5. c #ED914C",
"6. c #ED924C",
"7. c #F69A43",
"8. c #F69B45",
"9. c #FE9D40",
"0. c #FE9E41",
"q. c #FE9E43",
"w. c #FE9F44",
"e. c #F69E4A",
"r. c #F69F4C",
"t. c #EC8F52",
"y. c #ED9151",
"u. c #E69E59",
"i. c #EE9A58",
"p. c #EE9B59",
"a. c #EE9E5D",
"s. c #F79F52",
"d. c #FEA24A",
"f. c #FDA54C",
"g. c #E6A05D",
"h. c #F6A150",
"j. c #F6A252",
"k. c #F6A354",
"l. c #F6A455",
"z. c #F6A558",
"x. c #F6A659",
"c. c #F6A65A",
"v. c #F6A75A",
"b. c #F6A75B",
"n. c #F6A85D",
"m. c #CD926C",
"M. c #CE9B69",
"N. c #CE9C6C",
"B. c #D69D66",
"V. c #CE9E70",
"C. c #E19A6C",
"Z. c #E79E6E",
"A. c #EB9D6A",
"S. c #D6A16E",
"D. c #CEA074",
"F. c #CEA175",
"G. c #CEA176",
"H. c #CEA277",
"J. c #C6A07B",
"K. c #CEA37A",
"L. c #E6A363",
"P. c #E6A568",
"I. c #E6A66A",
"U. c #F0A666",
"Y. c #FCB366",
"T. c #ECA374",
"R. c #F8B773",
"E. c #F0B37B",
"W. c #F9BF7F",
"Q. c #878583",
"!. c #868584",
"~. c #878584",
"^. c #878685",
"/. c #878686",
"(. c #8E8883",
"). c #8E8984",
"_. c #8E8B87",
"`. c #8E8B88",
"'. c #8F8B88",
"]. c #8F8C89",
"[. c #958A83",
"{. c #968E85",
"}. c #998C83",
"|. c #968F88",
" X c #948F8C",
".X c #96908A",
"XX c #96918B",
"oX c #96918C",
"OX c #9C9088",
"+X c #9E948A",
"@X c #9E958C",
"#X c #93929D",
"$X c #9E9D9A",
"%X c #9E9D9B",
"&X c #A79687",
"*X c #AE9883",
"=X c #AE9B89",
"-X c #B69D84",
";X c #BD9B85",
":X c #BEA082",
">X c #BEA287",
",X c #B6A18E",
"<X c #BEA388",
"1X c #B6A594",
"2X c #B7A499",
"3X c #CEA986",
"4X c #C6A78A",
"5X c #C6AE96",
"6X c #DEB59C",
"7X c #E5A780",
"8X c #E6AA85",
"9X c #E4AA86",
"0X c #E4AE8C",
"qX c #E4AE8E",
"wX c #EBB285",
"eX c #F1BA85",
"rX c #E2B79E",
"tX c #C5B3A9",
"yX c #CFBEB6",
"uX c #FACA8E",
"iX c #F2C393",
"pX c #F2C493",
"aX c #FACD94",
"sX c #F3CC9E",
"dX c #F7D19F",
"fX c #DFC6BA",
"gX c #DFC8BC",
"hX c #DFC9BE",
"jX c #F3D1A6",
"kX c #F5DCB6",
"lX c #F8DFB4",
"zX c #DCD5D4",
"xX c #DCD7D8",
"cX c #EFE4C8",
"vX c #F6E5C2",
"bX c #F7EAC7",
"nX c #F0E5CB",
"mX c #F7ECCA",
"MX c #F7EDCC",
"NX c #F6EDCD",
"BX c #F6EECF",
"VX c #F7EECF",
"CX c #F6EFD0",
"ZX c #F7EFD0",
/* pixels */
"; ; ; ; ; ; ; ; ; ; ; ; ; ;Xv.) ` l.V.].; ; ; ; ; ; ; ; ; ; ; ; ",
"; ; ; ; ; ; ; ; ; ; ; ; D.! ^ ^ ! ! ^ r.+.; ; ; ; ; ; ; ; ; ; ; ",
"; ; ; ; ; ; ; ; ; ; ; ;X! ! ^ ^ ^ ^ ^ ^ s.!.; ; ; ; ; ; ; ; ; ; ",
"; ; ; ; ; ; ; ; ; ; /.8.> T n ^ ^ ^ n i c V.; ; ; ; ; ; ; ; ; ; ",
"; ; ; ; ; ; ; ; ; ; *Xi    .f ^ ^ ^ f = O b.; ; ; ; ; ; ; ; ; ; ",
"; ; ; ; ; ; ; ; ; ; C.$ - ..^ ^ ^ ^ ! #X  c [.; ; ; ; ; ; ; ; ; ",
"; ; ; ; ; ; ; ; ; ; l.* @ : ^ ^ ^ ^ ^ #   X.-.; ; ; ; ; ; ; ; ; ",
"; ; ; ; ; ; ; ; l ].] & + z ^ ^ ^ ^ ^ % o | M.; ; ; ; ; ; ; ; ; ",
"; ; ; ; ; ; ; ; ; #.^ O.o.^ ^ ^ ^ ^ ^ 4.l :.<.; ; ; ; ; ; ; ; ; ",
"; ; ; ; ; ; ; ; ; @.^ ^ ^ ^ ^ ^ ^ ^ ^ ^ ^ D <.!.; ; ; ; ; ; ; ; ",
"; ; ; ; ; ; ; XX^.@X^ ^ ^ ^ ^ ^ ^ ^ ^ ^ ^ ^ V.[.).; ; ; ; ; ; ; ",
"; ; ; ; ; ; {.w.I.^.v.^ ^ ^ A ^ ^ ! C ^ ^ q.1Xv.l.^.; ; ; ; ; ; ",
"; ; ; ; ; ; V.^ ^ g.=X} g A v F ^ v A s ' 4Xj.^ D -X; ; ; ; ; ; ",
"; ; ; ; ; ; F.^ ^ ^ v.5XE y y a a y t Q 3X7.^ ^ D -X; ; ; ; ; ; ",
"; ; ; ; ; ; ).w.^ ^ ^ W < q N F A N w 1 R ^ ^ ! v.^.; ; ; ; ; ; ",
"; ; ; ; ; ; ; ;.^ ^ ^ 8 , , , 4 9 , , < 6 ^ ^ ` &X; ; ; ; ; ; ; ",
"; ; ; ; ; ; ; ; L.^ B , , K jXZXBXkXi.< , m ^ K.; ; ; ; ; ; ; ; ",
"; ; ; ; ; ; ; ; oX8.e , i.ZXZXZXBXZXZXeX, 6 u.^.; ; ; ; ; ; ; ; ",
"; ; ; ; ; ; ; ; ; ,X2 j BXBXZXZXZXZXZXZXa., &.; ; ; ; ; ; ; ; ; ",
"; ; ; ; ; ; ; ; ; %., sXZXZXZXZXZXZXZXZXvX4 >.; ; ; ; ; ; ; ; ; ",
"; ; ; ; ; ; ; ; ; $.0 ZXZXZXZXZXZXZXZXZXZX5.h ; ; ; ; ; ; ; ; ; ",
"; ; ; ; ; ; ; ; ^.3.5.ZXZXZXZXZXZXZXZXZXZXE.5 >X; ; ; ; ; ; ; ; ",
"; ; ; ; ; ; ; ; F.F U.ZXZXZXZXZXZXZXZXZXZXiXe w.(.; ; ; ; ; ; ; ",
"; ; ; ; ; ; ;  Xq.^ R.ZXZXZXZXZXZXZXZXZXZXpXV ^ N.; ; ; ; ; ; ; ",
"; ; ; ; ; ; ; *.^ ^ q.bXZXZXZXZXZXZXZXZXZXeX^ ^ l.; ; ; ; ; ; ; ",
"; ; ; ; ; ; ; *X^ ^ ^ Y.ZXZXZXZXZXZXZXZXlX) ^ ^ b.; ; ; ; ; ; ; ",
"; ; ; ; ; ; ; !.d.! ! / aXZXZXZXZXZXZXmXf.^ ^ ^ K.; ; ; ; ; ; ; ",
"; ; ; ; ; ; ; ; N.^ ! / } bXZXZXZXZXZXuX^ ^ ^ `  X; ; ; ; ; ; ; ",
"; ; ; ; ; ; ; ; &XW L L P sXVXVXZXZXZXj.P P Y I.; ; ; ; ; ; ; ; ",
"; ; ; ; ; ; ; ; [.2.k k k t.nXNXZXcXwXH k k J m.; ; ; ; ; ; ; ; ",
"; ; ; ; ; ; ; ; OXzX8XgX7XxX}.$X#X; yXgX0XfXrXtX; ; ; ; ; ; ; ; ",
"; ; ; ; ; ; ; ; ; ;XA.qXt.rX; ; l +.2XT.Z.8XC. X; ; ; ; ; ; ; ; "
};
