/* XPM */
static char *_86731023f18474deed526c64c843b63[] = {
/* columns rows colors chars-per-pixel */
"32 32 129 2 ",
"   c black",
".  c gray4",
"X  c #1B0E0E",
"o  c #111111",
"O  c #151515",
"+  c gray11",
"@  c #2C0000",
"#  c #230012",
"$  c #34001B",
"%  c #291616",
"&  c #2C1A1E",
"*  c #34042D",
"=  c #341124",
"-  c #381527",
";  c #202020",
":  c #232323",
">  c #2A2A2A",
",  c #30312C",
"<  c #353535",
"1  c gray22",
"2  c #631D1D",
"3  c #422A1D",
"4  c #54072B",
"5  c #57002D",
"6  c #57043F",
"7  c #511F34",
"8  c #50123C",
"9  c #5B1F3C",
"0  c #60042D",
"q  c #690036",
"w  c #7A003F",
"e  c #452525",
"r  c #42282D",
"t  c #532C2C",
"y  c #5E392C",
"u  c #462335",
"i  c #553D31",
"p  c #5D543D",
"a  c #68462C",
"s  c #73532C",
"d  c #79483B",
"f  c #4F0644",
"g  c #4A1942",
"h  c #69085A",
"j  c #4F3E42",
"k  c #5B384A",
"l  c #582750",
"z  c #6B3C5C",
"x  c #770F62",
"c  c #7A0863",
"v  c #6D3C66",
"b  c #464040",
"n  c gray28",
"m  c gray29",
"M  c #525546",
"N  c #555555",
"B  c #5A5C52",
"V  c #585858",
"C  c #7D4343",
"Z  c #765050",
"A  c #7E5D5D",
"S  c #7B4762",
"D  c #606060",
"F  c #6A6A6A",
"G  c gray43",
"H  c #717171",
"J  c #7C7C7C",
"K  c #840000",
"L  c #B8001B",
"P  c #A01C1C",
"I  c #9D2525",
"U  c #A72323",
"Y  c #BD2323",
"T  c #BC3838",
"R  c #D23838",
"E  c #84553B",
"W  c #9E0052",
"Q  c #851C6B",
"!  c #830A71",
"~  c #9E356C",
"^  c #852477",
"/  c #925C43",
"(  c #845757",
")  c #84505B",
"_  c #8B5358",
"`  c #9F587D",
"'  c #A3476B",
"]  c #A95668",
"[  c #8C6C6C",
"{  c #996C6C",
"}  c #A0646B",
"|  c #D95555",
" . c #DF7171",
".. c #9F8C63",
"X. c #9E0C88",
"o. c #B80E9E",
"O. c #D210B5",
"+. c #D2718C",
"@. c #ED12CC",
"#. c #838383",
"$. c #8D8080",
"%. c #948181",
"&. c #9B8787",
"*. c gray58",
"=. c #A58B8B",
"-. c #B69696",
";. c #B39999",
":. c #A0A0A0",
">. c #AAAAAA",
",. c #BBBBBB",
"<. c #C69E8A",
"1. c #D69494",
"2. c #F2A990",
"3. c #FFB793",
"4. c #C6BEBA",
"5. c #C6BFBF",
"6. c #ECAAAA",
"7. c #E3AABC",
"8. c #C0C6A3",
"9. c #D6BCC2",
"0. c #C3C3C3",
"q. c #C6C6C6",
"w. c #CACACA",
"e. c #DFDFDF",
"r. c #FFD7C3",
"t. c #F7FFD2",
"y. c #E2E2E2",
"u. c #F4F4F4",
"i. c white",
/* pixels */
"@.@.@.@.@.@.@.@.@.@.@.@.@.@.@.@.@.@.@.@.@.@.@.@.@.@.@.@.@.@.@.@.",
"@.@.@.@.@.@.@.@.@.@.@.@.@.@.@.@.@.@.@.@.@.@.@.@.@.@.@.@.@.@.@.@.",
"@.@.@.@.@.@.@.@.@.@.@.@.@.@.@.@.@.@.@.@.@.@.@.@.@.@.@.@.@.@.@.@.",
"@.@.@.@.@.@.@.@.@.@.@.@.@.@.@.@.@.@.@.@.@.@.@.@.@.@.@.@.@.@.@.@.",
"@.@.@.@.@.@.@.@.@.@.@.@.@.@.@.@.@.@.@.@.@.@.@.@.@.@.@.@.@.@.@.@.",
"@.@.@.@.@.@.@.@.@.@.@.@.@.@.@.! f f @.@.@.@.@.@.@.@.@.@.@.@.@.@.",
"@.@.@.@.@.@.@.@.@.@.@.@.@.@.^ q.w.u.v O.@.@.@.@.@.@.@.@.@.@.@.@.",
"@.@.@.@.@.@.@.@.@.@.@.@.@.! q.i.e.e.y.v @.@.@.@.@.@.@.@.@.@.@.@.",
"@.@.@.@.@.@.@.@.@.@.@.@.@.f w.u.e.e.u.m @.@.@.@.@.@.@.@.@.@.@.@.",
"@.@.@.@.@.@.@.@.@.@.@.@.@.f e.G G e.G < @.@.@.@.@.@.@.@.@.@.@.@.",
"@.@.@.@.@.@.@.@.@.@.@.@.O.l *.) } i )   @.@.@.@.@.@.@.@.@.@.@.@.",
"@.@.@.@.@.@.@.@.@.@.@.@.8 Z F & 2.3.j : @.@.@.@.@.@.@.@.@.@.@.@.",
"@.@.@.@.@.@.@.@.@.@.O.0  .] { 5.r r 0.#.* O.@.@.@.@.@.@.@.@.@.@.",
"@.@.@.@.@.@.@.@.@.@.X.@ 7.' [ { 9.9.V D O g @.@.@.@.@.@.@.@.@.@.",
"@.@.@.@.@.@.@.@.@.@.M t.B u :.=.( %.V D , , o.@.@.@.@.@.@.@.@.@.",
"@.@.@.@.@.@.@.@.@.! 8.t.z 6 ` e.I C ;.V 8...f @.@.@.@.@.@.@.@.@.",
"@.@.@.@.@.@.@.o.h X p z @.@.$ L R 6.2 q & / 1 h o.@.@.@.@.@.@.@.",
"@.@.@.@.@.@.o.7 s 3 s X.@.! S +.Y 1.T k 5 ..H >._ o.@.@.@.@.@.@.",
"@.@.@.@.@.@.O.f -.p ! @.O.* ~ e.U *.| N W $ 4.r.* O.@.@.@.@.@.@.",
"@.@.@.@.@.@.X.$.A h @.@.X.n = ,.K   P + h c Q <.H X.@.@.@.@.@.@.",
"@.@.@.@.@.o.H v c @.@.@.< J > - 5 $ + . f @.@.! v H o.@.@.@.@.@.",
"@.@.@.@.@.f v O.@.@.@.@.X X O q W $ : . o.@.@.@.O.v f @.@.@.@.@.",
"@.@.@.@.@.@.@.@.@.@.@.o.3 E $ W q t a X.@.@.@.@.@.@.@.@.@.@.@.@.",
"@.@.@.@.@.@.@.@.@.@.@.f ) e c $ # t t X.@.@.@.@.@.@.@.@.@.@.@.@.",
"@.@.@.@.@.@.@.@.@.@.X.y d 8 @.@.X.y y X.@.@.@.@.@.@.@.@.@.@.@.@.",
"@.@.@.@.@.@.@.@.@.@.8 d s X.@.@.X.y E 9 @.@.@.@.@.@.@.@.@.@.@.@.",
"@.@.@.@.@.@.@.@.@.@.f f f o.@.@.o.f f f @.@.@.@.@.@.@.@.@.@.@.@.",
"@.@.@.@.@.@.@.@.@.@.@.@.@.@.@.@.@.@.@.@.@.@.@.@.@.@.@.@.@.@.@.@.",
"@.@.@.@.@.@.@.@.@.@.@.@.@.@.@.@.@.@.@.@.@.@.@.@.@.@.@.@.@.@.@.@.",
"@.@.@.@.@.@.@.@.@.@.@.@.@.@.@.@.@.@.@.@.@.@.@.@.@.@.@.@.@.@.@.@.",
"@.@.@.@.@.@.@.@.@.@.@.@.@.@.@.@.@.@.@.@.@.@.@.@.@.@.@.@.@.@.@.@.",
"@.@.@.@.@.@.@.@.@.@.@.@.@.@.@.@.@.@.@.@.@.@.@.@.@.@.@.@.@.@.@.@."
};
