/* XPM */
static char *ae7d7e6da02e4b0990d172a5a6f16a0f[] = {
/* columns rows colors chars-per-pixel */
"32 32 129 2 ",
"   c #9F2F00",
".  c #A63606",
"X  c #A73409",
"o  c #AC2C16",
"O  c #AE2B1A",
"+  c #B12E1D",
"@  c #AE3414",
"#  c #AF311A",
"$  c #B23517",
"%  c #B33D14",
"&  c #B2341A",
"*  c #B63A1C",
"=  c #B42D22",
"-  c #B82E25",
";  c #BA2E2A",
":  c #B63323",
">  c #B93326",
",  c #BA3925",
"<  c #BC322C",
"1  c #BE3C2C",
"2  c #BE2D32",
"3  c #BE3330",
"4  c #C0352E",
"5  c #C1392D",
"6  c #C32E37",
"7  c #C42E39",
"8  c #C23234",
"9  c #C4303A",
"0  c #AA4404",
"q  c #AB440A",
"w  c #A75200",
"e  c #AE4213",
"r  c #B04113",
"t  c #BA4E16",
"y  c #B24318",
"u  c #BA431B",
"i  c #BB4A1A",
"p  c #BD5D10",
"a  c #BD531D",
"s  c #B96108",
"d  c #BE4B23",
"f  c #C25A1C",
"g  c #C5641F",
"h  c #C64F2F",
"j  c #C35222",
"k  c #C65827",
"l  c #C85E20",
"z  c #C55428",
"x  c #C85A29",
"c  c #C84531",
"v  c #D04F39",
"b  c #CD5A32",
"n  c #D25D32",
"m  c #D4553E",
"M  c #C86522",
"N  c #CD6824",
"B  c #CC632A",
"V  c #D06B25",
"C  c #CE7026",
"Z  c #D17124",
"A  c #D4722B",
"S  c #D77A2C",
"D  c #D97E2C",
"F  c #D16131",
"G  c #D8643D",
"H  c #DB7435",
"J  c #DE7C31",
"K  c #E1743D",
"L  c #E35F52",
"P  c #DE6840",
"I  c #E16E42",
"U  c #E77D41",
"Y  c #E77C48",
"T  c #E8794E",
"R  c #EE7D55",
"E  c #F07F53",
"W  c #DB8725",
"Q  c #DC832F",
"!  c #DE892F",
"~  c #E98E33",
"^  c #E88039",
"/  c #EB933C",
"(  c #F59E3B",
")  c #F2AA3B",
"_  c #FABF37",
"`  c #FDBD3B",
"'  c #FBC134",
"]  c #FFC13A",
"[  c #EB8547",
"{  c #EF8843",
"}  c #F38D4B",
"|  c #F88F4E",
" . c #F29442",
".. c #F7964C",
"X. c #FC9B4B",
"o. c #F58A56",
"O. c #F88B53",
"+. c #F79451",
"@. c #FB9657",
"#. c #F5A246",
"$. c #FBA442",
"%. c #FEA64F",
"&. c #FFAE4F",
"*. c #FFBA43",
"=. c #FFB54D",
"-. c #FFBF4A",
";. c #FFA553",
":. c #FFAE54",
">. c #FFA45A",
",. c #FFAD5A",
"<. c #FFB355",
"1. c #FFBC52",
"2. c #FFB55B",
"3. c #FFBC5A",
"4. c #FF9465",
"5. c #FF9B6D",
"6. c #FFAC61",
"7. c #FFB564",
"8. c #FFBB62",
"9. c #FFB06B",
"0. c #FFBB6A",
"q. c #FFA672",
"w. c #FFBD70",
"e. c #FFB17D",
"r. c #FFC344",
"t. c #FFC14B",
"y. c #FFC355",
"u. c #FFC25C",
"i. c #FFC164",
/* pixels */
"7 7 7 7 7 7 7 7 7 7 7 7 7 7 7 7 7 7 7 7 7 6 7 7 7 7 7 7 7 7 7 7 ",
"7 7 7 7 7 7 7 7 7 7 7 7 7 7 7 7 7 7 7 7 7 7 7 7 7 7 7 7 7 7 7 7 ",
"7 7 7 7 7 7 7 7 7 7 7 7 7 7 7 7 7 7 7 7 7 7 6 6 7 7 7 7 7 6 7 7 ",
"7 7 7 7 7 7 7 7 7 7 7 7 7 7 7 7 7 7 7 7 7 6 6 7 7 7 7 7 7 7 7 7 ",
"7 7 7 7 7 7 7 6 7 7 7 7 7 7 7 7 7 7 9 9 9 7 7 7 7 7 7 7 7 7 7 7 ",
"7 7 7 7 7 7 6 6 7 7 7 7 7 7 7 7 7 6 = ; 9 7 7 7 7 7 7 7 7 7 7 7 ",
"7 7 7 7 7 7 7 7 7 7 7 6 7 9 9 6 2 L R d = < 9 7 7 7 7 7 7 7 6 6 ",
"7 7 7 7 7 7 7 7 7 7 6 8 9 < ; < 3 , T e.E , > 9 6 7 7 7 7 7 7 6 ",
"7 7 7 7 7 7 6 2 9 7 7 9 : h b @ : 3 O G w.>.j > 6 6 7 7 7 7 7 7 ",
"6 7 7 7 7 7 7 7 7 9 3 + k 9.0.+.m 3 8 O A i.@.u < 7 7 7 7 7 7 7 ",
"7 7 7 7 7 7 7 6 9 3 : x 2.r.` u.q.d < < @ } 8./ & 7 6 7 7 7 7 7 ",
"7 7 7 7 7 7 7 6 9 + k 7.r.' ] <.d = 8 8 < j 1.y.n - 6 7 7 9 7 7 ",
"7 7 7 7 7 7 6 8 > z 2.r.' ] -.p o 3 2 7 6 $ / u.| $ 8 7 6 9 6 7 ",
"7 7 7 7 7 7 6 6 1 q.1._ ] t.$.J * < 9 9 9 + Z 3.,.i ; 7 7 7 7 7 ",
"7 7 6 6 7 7 7 7 ; P 3.-.<.D $.:.{ % 3 7 9 : f 2.2.M - 7 7 7 7 7 ",
"7 7 6 6 7 7 7 6 3 O H 7.j   A ,.2.} * < 9 > f 2.2.V - 7 7 7 7 6 ",
"7 7 7 7 6 7 7 7 9 3 ; , = 5 @ I 1.y. .% 4 = g 2.3.N = 7 7 7 7 7 ",
"7 7 7 9 6 7 7 8 3 3 : = 8 3 9 @ J 3.3...u X ! y.2.f > 7 7 7 7 7 ",
"7 7 7 7 7 7 7 8 : y @.H & 3 9 3 $ U 3.y. .s *.-.>.% < 7 7 7 7 7 ",
"7 7 7 7 7 6 8 : o.>.<.7.Y * + > , X W ` *.t.] 1.K # 8 9 7 7 7 7 ",
"7 7 7 7 6 9 = i <.y.#./ i.%.C t e q w ) r.] r.) $ 8 6 6 7 7 6 7 ",
"7 7 7 6 3 : b 6.=.=...0 Q 8.i.9.>.>.2.1.t.r.*.~ u - 6 6 7 7 6 6 ",
"7 6 7 6 : P ,.:.,.a * > # b @.9.8.u.u.8.,./ ( $.X.t - 6 7 7 7 7 ",
"7 6 6 8 1 5.;.,.F O 3 2 9 = @ a C D S M e . ^ :.1.>.c 6 9 7 7 7 ",
"6 7 7 6 ; m 4.I = 3 9 7 7 7 3 ; O = O = < < $ O.8.7.v 2 7 7 7 7 ",
"7 7 7 7 6 ; > = 2 7 7 7 7 7 7 9 7 9 9 9 9 6 < : [ B + 9 7 7 7 7 ",
"7 7 7 7 6 9 6 6 2 9 7 9 7 7 7 7 7 7 7 7 9 6 7 2 = = 8 6 7 7 7 7 ",
"7 7 7 7 6 6 7 6 7 7 7 9 7 7 7 7 7 7 7 7 7 6 7 7 9 9 6 6 7 7 7 7 ",
"7 7 7 7 6 6 7 7 7 7 7 9 7 7 7 7 7 7 7 7 7 6 6 7 7 7 7 7 7 7 7 7 ",
"7 7 7 7 7 6 7 7 7 7 2 9 7 7 7 7 7 7 7 7 7 7 6 6 7 7 7 7 7 7 7 7 ",
"7 7 7 7 7 7 7 7 7 7 7 7 7 7 7 7 7 7 7 9 7 7 7 7 7 7 7 7 7 7 7 7 ",
"7 7 7 7 7 7 6 7 7 7 7 7 7 7 7 7 7 7 7 7 7 7 7 7 7 7 7 7 7 7 7 7 "
};
